#!OML:ASF H:\Terrain\Patient Classification 1\Walking\liu\liu.ASF
:FULLY-SPECIFIED
:DEGREES
246
root 0.0218 15.926 49.9727 7.62437 0.123 -4.56384
lowerback -2.33217 0.503585 1.66887
upperback -0.722648 0.609101 3.26157
thorax 0.548518 0.305848 2.42741
lowerneck -18.2334 -4.05358 -11.2637
upperneck 17.7864 -5.0696 11.9522
head 9.20062 -1.88754 5.34983
rclavicle 4.32357e-015 -5.1684e-015
rhumerus -34.5782 22.1561 -88.9583
rradius 43.008
rwrist -21.207
rhand -31.493 -24.008
rfingers 7.12502
rthumb -4.75923 -53.9345
lclavicle 4.32357e-015 -5.1684e-015
lhumerus -49.4932 -11.6838 96.1888
lradius 29.0235
lwrist 6.86782
lhand -14.2665 -18.2366
lfingers 7.12502
lthumb 11.8721 11.4068
rfemur -10.9096 5.05564 30.9498
rtibia 26.318
rfoot -19.54 3.81932
rtoes -5.11784
lfemur -41.2655 10.2188 -18.3358
ltibia 57.3714
lfoot -11.7182 12.6376
ltoes -13.8806
247
root 0.0219 15.9334 50.1616 7.56899 0.123 -4.10374
lowerback -2.856 0.582832 0.953654
upperback -0.328358 0.701297 3.35572
thorax 1.23406 0.348036 2.93978
lowerneck -18.8832 -4.05886 -11.9264
upperneck 17.8552 -4.92072 12.393
head 9.35359 -1.79819 5.64849
rclavicle 1.49089e-016 -1.59028e-015
rhumerus -33.2909 22.9884 -88.2193
rradius 43.351
rwrist -21.4823
rhand -31.5351 -24.1329
rfingers 7.12502
rthumb -4.79986 -54.0585
lclavicle 1.49089e-016 -1.59028e-015
lhumerus -49.443 -11.0025 96.2289
lradius 28.8086
lwrist 6.71677
lhand -16.5947 -16.7317
lfingers 7.12502
lthumb 9.6264 13.0283
rfemur -9.79032 5.16441 30.3964
rtibia 25.7001
rfoot -19.7209 4.01893
rtoes -4.44057
lfemur -41.2563 9.69114 -18.6928
ltibia 53.9078
lfoot -11.1399 12.6303
ltoes -12.0005
248
root 0.0219 15.9396 50.3504 7.71426 0.123 -4.164
lowerback -3.43311 0.723329 0.778426
upperback 0.0120638 0.863141 3.53066
thorax 1.89519 0.422542 3.23994
lowerneck -19.4324 -4.13416 -12.45
upperneck 18.0103 -4.89725 12.7269
head 9.52827 -1.77176 5.87212
rclavicle -1.04859e-014 -3.18055e-015
rhumerus -31.9762 23.6326 -87.4609
rradius 43.7541
rwrist -21.6898
rhand -31.4389 -25.4401
rfingers 7.12502
rthumb -4.70697 -55.3678
lclavicle -1.04859e-014 -3.18055e-015
lhumerus -49.461 -10.4112 96.112
lradius 28.4949
lwrist 6.2909
lhand -16.7558 -17.0683
lfingers 7.12502
lthumb 9.471 12.6989
rfemur -8.80501 5.57477 30.4442
rtibia 24.8038
rfoot -19.6142 3.93612
rtoes -3.70625
lfemur -41.151 9.62032 -18.7593
ltibia 50.992
lfoot -11.876 12.2346
ltoes -9.69899
249
root 0.0219 15.9509 50.5393 7.74737 0.123 -4.27797
lowerback -3.50228 0.837255 0.97657
upperback 0.0858424 1.0037 3.46474
thorax 2.00736 0.494069 3.06929
lowerneck -19.4157 -4.14443 -12.5428
upperneck 17.9856 -4.93251 12.9395
head 9.53066 -1.7727 5.96087
rclavicle -1.74434e-014 -1.27222e-014
rhumerus -31.3098 23.9264 -87.2771
rradius 44.2369
rwrist -21.5553
rhand -31.7384 -26.747
rfingers 7.12502
rthumb -4.99613 -56.6681
lclavicle -1.74434e-014 -1.27222e-014
lhumerus -49.7402 -10.4746 96.0197
lradius 27.689
lwrist 6.44963
lhand -16.6372 -20.1325
lfingers 7.12502
lthumb 9.58542 9.62944
rfemur -7.73171 5.01125 30.5129
rtibia 23.8306
rfoot -19.1778 4.5833
rtoes -3.33047
lfemur -41.2214 9.47519 -18.7268
ltibia 47.97
lfoot -11.6148 12.3515
ltoes -12.0415
250
root 0.0219 15.9575 50.7281 7.86278 0.123 -4.5003
lowerback -3.38831 0.889901 1.22652
upperback 0.0277087 1.06847 3.51954
thorax 1.88423 0.529264 2.98533
lowerneck -19.2934 -4.16656 -12.7363
upperneck 17.9502 -4.952 13.0922
head 9.50849 -1.78326 6.04637
rclavicle 1.01877e-014 -1.66979e-014
rhumerus -30.7241 24.3391 -87.0706
rradius 44.5904
rwrist -21.5808
rhand -32.3275 -26.3111
rfingers 7.12502
rthumb -5.56489 -56.218
lclavicle 1.01877e-014 -1.66979e-014
lhumerus -49.8282 -10.0018 95.7589
lradius 26.3755
lwrist 6.24576
lhand -15.2157 -29.5756
lfingers 7.12502
lthumb 10.9567 0.118481
rfemur -6.67508 4.52313 30.677
rtibia 22.6127
rfoot -18.82 5.07918
rtoes -2.47093
lfemur -41.63 9.29805 -18.5538
ltibia 45.1427
lfoot -11.2654 12.0793
ltoes -13.5665
251
root 0.0219 15.9545 50.917 8.08356 0.123 -4.87207
lowerback -3.18758 0.915893 1.58595
upperback -0.14154 1.1004 3.68498
thorax 1.59993 0.548764 2.94916
lowerneck -19.2526 -4.22373 -12.8322
upperneck 18.1177 -5.00906 13.0305
head 9.5682 -1.82467 6.03775
rclavicle -1.13307e-014 2.82274e-014
rhumerus -30.222 24.7185 -86.7601
rradius 44.9496
rwrist -21.7447
rhand -32.7424 -26.031
rfingers 7.12502
rthumb -5.96549 -55.9271
lclavicle -1.13307e-014 2.82274e-014
lhumerus -50.6631 -9.08541 95.2703
lradius 26.5797
lwrist 5.65452
lhand -12.8454 -21.0593
lfingers 7.12502
lthumb 13.2423 8.50009
rfemur -5.77709 4.07967 31.0114
rtibia 21.363
rfoot -18.424 5.31297
rtoes -2.60044
lfemur -42.0223 8.88737 -18.1838
ltibia 42.0545
lfoot -10.9169 11.799
ltoes -13.0725
252
root 0.022 15.9497 51.1058 8.26873 0.123 -5.03755
lowerback -2.99743 0.921886 1.68791
upperback -0.306082 1.11767 3.79341
thorax 1.32335 0.558615 2.99849
lowerneck -19.8285 -4.28746 -12.6243
upperneck 18.878 -5.06047 12.6115
head 9.92969 -1.8617 5.8683
rclavicle -4.96962e-015 -1.03368e-014
rhumerus -29.8079 25.2901 -86.5476
rradius 45.3276
rwrist -21.7948
rhand -32.7063 -25.5752
rfingers 7.12502
rthumb -5.93066 -55.4722
lclavicle -4.96962e-015 -1.03368e-014
lhumerus -51.8547 -8.63991 95.1744
lradius 27.3648
lwrist 5.67649
lhand -13.0414 -15.7529
lfingers 7.12502
lthumb 13.0533 13.8186
rfemur -4.91869 3.59169 31.0857
rtibia 20.176
rfoot -17.5513 5.83665
rtoes -2.65801
lfemur -42.1972 8.44324 -17.9653
ltibia 38.8441
lfoot -10.5889 11.6565
ltoes -12.3474
253
root 0.022 15.9451 51.2947 8.43023 0.123 -4.9833
lowerback -3.16439 1.0473 1.52985
upperback -0.262241 1.28251 3.75141
thorax 1.45294 0.639928 3.05511
lowerneck -20.4372 -4.38841 -11.8618
upperneck 19.347 -5.16604 11.6076
head 10.1714 -1.94696 5.36385
rclavicle 4.96962e-017 2.38542e-015
rhumerus -29.0579 25.7041 -86.3434
rradius 45.5358
rwrist -21.7203
rhand -32.4717 -23.8426
rfingers 7.12502
rthumb -5.70421 -53.7458
lclavicle 4.96962e-017 2.38542e-015
lhumerus -52.4237 -8.43372 95.0305
lradius 27.3322
lwrist 5.90039
lhand -14.8694 -13.2748
lfingers 7.12502
lthumb 11.2907 16.4013
rfemur -3.92501 3.82029 30.8883
rtibia 19.0486
rfoot -16.7888 6.22389
rtoes -1.68774
lfemur -42.1073 8.19392 -17.8523
ltibia 35.6023
lfoot -10.4734 11.4507
ltoes -11.0278
254
root 0.022 15.9443 51.4835 8.49212 0.123 -5.31032
lowerback -3.44662 1.24755 2.02383
upperback -0.0348017 1.51034 3.68364
thorax 1.85029 0.75649 2.72907
lowerneck -20.2496 -4.55409 -10.2684
upperneck 18.7096 -5.39797 9.65645
head 9.83196 -2.15819 4.32156
rclavicle -6.41081e-015 -3.81667e-014
rhumerus -28.0297 25.4989 -85.9694
rradius 45.7451
rwrist -21.6365
rhand -32.1587 -23.8756
rfingers 7.12502
rthumb -5.40195 -53.7868
lclavicle -6.41081e-015 -3.81667e-014
lhumerus -52.7486 -8.44989 94.6502
lradius 27.2847
lwrist 6.09266
lhand -12.3083 -15.829
lfingers 7.12502
lthumb 13.7599 13.696
rfemur -2.70506 3.74434 31.0843
rtibia 18.0624
rfoot -16.6082 6.4153
rtoes -2.42689
lfemur -41.7227 7.20028 -16.9187
ltibia 32.331
lfoot -10.6832 11.5902
ltoes -7.94126
255
root 0.022 15.9529 51.6724 8.63415 0.123 -5.75701
lowerback -3.72714 1.39917 2.68599
upperback 0.156773 1.66182 3.67856
thorax 2.21942 0.83894 2.37273
lowerneck -21.8934 -4.68158 -9.53798
upperneck 20.109 -5.5467 8.82908
head 10.6025 -2.22536 3.89726
rclavicle 7.95139e-016 -1.23246e-014
rhumerus -27.1126 25.3908 -85.592
rradius 46.1065
rwrist -21.651
rhand -31.5607 -24.1027
rfingers 7.12502
rthumb -4.82453 -54.0278
lclavicle 7.95139e-016 -1.23246e-014
lhumerus -52.9023 -8.22544 94.0838
lradius 27.0399
lwrist 5.87621
lhand -11.0598 -16.7999
lfingers 7.12502
lthumb 14.9629 12.6396
rfemur -1.61892 3.51252 31.3731
rtibia 17.2591
rfoot -16.5701 6.63535
rtoes -3.24764
lfemur -41.39 5.63122 -15.6114
ltibia 29.0891
lfoot -10.8739 11.9541
ltoes -5.08665
256
root 0.0221 15.9637 51.8612 8.74301 0.123 -5.59189
lowerback -3.89151 1.50471 2.40761
upperback 0.157399 1.80848 3.62105
thorax 2.30232 0.909569 2.48265
lowerneck -20.7455 -4.5109 -11.387
upperneck 19.1677 -5.39691 11.429
head 10.1766 -2.02788 5.17467
rclavicle -2.08227e-014 -1.51076e-014
rhumerus -26.7717 25.6504 -85.459
rradius 46.6005
rwrist -21.5848
rhand -31.435 -23.5304
rfingers 7.12502
rthumb -4.70316 -53.4582
lclavicle -2.08227e-014 -1.51076e-014
lhumerus -53.0938 -7.40617 93.2571
lradius 26.3719
lwrist 5.0042
lhand -10.6245 -16.7464
lfingers 7.12502
lthumb 15.3822 12.6614
rfemur -0.60016 3.79236 31.0646
rtibia 16.4734
rfoot -16.4675 6.69753
rtoes -2.02651
lfemur -41.0889 4.93792 -15.3819
ltibia 26.0061
lfoot -10.5023 11.6076
ltoes -6.63097
257
root 0.0221 15.9642 52.0501 8.63193 0.123 -5.37395
lowerback -3.6374 1.60014 1.93504
upperback 0.0422968 1.97443 3.60539
thorax 2.02137 0.987736 2.72916
lowerneck -22.3687 -4.61146 -11.1794
upperneck 21.1412 -5.42637 10.7905
head 11.1747 -2.05638 4.96079
rclavicle -1.44119e-014 -2.82274e-014
rhumerus -26.6528 25.8183 -85.3742
rradius 46.9382
rwrist -21.324
rhand -31.452 -23.2326
rfingers 7.12502
rthumb -4.71961 -53.16
lclavicle -1.44119e-014 -2.82274e-014
lhumerus -53.6664 -6.55645 92.5297
lradius 25.8765
lwrist 4.13918
lhand -10.4996 -16.8542
lfingers 7.12502
lthumb 15.5025 12.5443
rfemur 0.609555 4.28022 30.8259
rtibia 15.5631
rfoot -16.1454 6.37192
rtoes -1.8401
lfemur -40.6435 4.60289 -15.2665
ltibia 23.2688
lfoot -10.1944 10.8606
ltoes -8.47844
258
root 0.0221 15.9511 52.2389 8.65957 0.123 -5.77489
lowerback -3.48822 1.6713 2.13389
upperback 0.0533962 2.06379 3.7644
thorax 1.94754 1.03351 2.78188
lowerneck -23.046 -4.50646 -10.9973
upperneck 21.7933 -5.26692 10.5977
head 11.5148 -1.9761 4.90699
rclavicle -9.0944e-015 -2.66371e-014
rhumerus -26.0085 26.083 -85.1125
rradius 47.0195
rwrist -21.1597
rhand -31.3221 -22.8449
rfingers 7.12502
rthumb -4.59415 -52.7751
lclavicle -9.0944e-015 -2.66371e-014
lhumerus -54.1595 -6.01176 92.1179
lradius 25.7736
lwrist 3.75429
lhand -10.277 -17.3695
lfingers 7.12502
lthumb 15.7169 12.0123
rfemur 1.71445 4.65973 31.2433
rtibia 14.4873
rfoot -15.3382 6.07043
rtoes -4.1821
lfemur -40.445 3.49723 -13.9508
ltibia 20.9343
lfoot -10.357 10.8839
ltoes -9.46532
259
root 0.0221 15.9318 52.4278 8.85998 0.123 -6.52163
lowerback -3.59074 1.6792 2.96264
upperback 0.0776787 2.02936 3.90082
thorax 2.05556 1.02341 2.46175
lowerneck -22.9003 -4.30794 -10.7045
upperneck 21.6688 -5.14626 10.7754
head 11.4217 -1.87795 4.94151
rclavicle 1.59525e-014 -1.31198e-014
rhumerus -25.444 26.3879 -84.9886
rradius 47.2313
rwrist -21.2737
rhand -31.6483 -22.9557
rfingers 7.12502
rthumb -4.90918 -52.8788
lclavicle 1.59525e-014 -1.31198e-014
lhumerus -54.5424 -5.59803 91.5656
lradius 25.6777
lwrist 3.3649
lhand -9.61608 -18.2016
lfingers 7.12502
lthumb 16.3533 11.129
rfemur 2.62606 4.312 31.8769
rtibia 13.4593
rfoot -14.3554 6.35284
rtoes -5.89758
lfemur -40.5086 2.06096 -12.2062
ltibia 18.8601
lfoot -10.6896 11.2033
ltoes -11.7985
